<?xml version="1.0" ?><!DOCTYPE svg  PUBLIC '-//W3C//DTD SVG 1.1//EN'  'http://www.w3.org/Graphics/SVG/1.1/DTD/svg11.dtd'><svg style="enable-background:new 0 0 35.999 36.005;" version="1.1" viewBox="0 0 35.999 36.005" xml:space="preserve" xmlns="http://www.w3.org/2000/svg" xmlns:xlink="http://www.w3.org/1999/xlink"><g id="Print"><g id="Layer_9"><g id="ClipView_6"><path d="M0,0v36.005h35.999V0H0z" marker-end="none" marker-start="none" style="fill:none;"/><g><defs><rect height="36.005" id="SVGID_1_" width="35.999"/></defs><clipPath id="SVGID_2_"><use style="overflow:visible;" xlink:href="#SVGID_1_"/></clipPath><g style="clip-path:url(#SVGID_2_);"><path d="M8.999,3.005V16.21h18.003V3.005H8.999z" marker-end="none" marker-start="none" style="fill:#7299BF;"/><path d="M2.25,30.681V15.83c0-0.454,0.336-0.825,0.75-0.825       h30.001c0.413,0,0.75,0.371,0.75,0.825v14.851c0,0.456-0.337,0.825-0.75,0.825H3C2.586,31.506,2.25,31.137,2.25,30.681z" marker-end="none" marker-start="none" style="fill:#526073;"/><path d="M3,15.755v6.75h30.001v-6.75H3z" marker-end="none" marker-start="none" style="fill:#97A4B5;"/><linearGradient gradientTransform="matrix(6.123234e-017 -1 1 6.123234e-017 358.751 351.259)" gradientUnits="userSpaceOnUse" id="SVGID_3_" x1="318.704" x2="329.504" y1="-340.7505" y2="-340.7505"><stop offset="0" style="stop-color:#FFFFFF"/><stop offset="1" style="stop-color:#BEC6D1"/></linearGradient><path d="M3,30.755v-9h30.001v9H3z" marker-end="none" marker-start="none" style="fill:url(#SVGID_3_);"/><path d="M3.001,15.755v6.751h0.751v-6.751H3.001z" marker-end="none" marker-start="none" style="fill:#BEC6D1;"/><defs><filter filterUnits="userSpaceOnUse" height="15.751" id="Adobe_OpacityMaskFilter" width="0.751" x="32.25" y="15.004"><feColorMatrix type="matrix" values="1 0 0 0 0  0 1 0 0 0  0 0 1 0 0  0 0 0 1 0"/></filter></defs><mask height="15.751" id="TranspMask_6_1_" maskUnits="userSpaceOnUse" width="0.751" x="32.25" y="15.004"><linearGradient gradientTransform="matrix(0.0251 0.9997 -0.9969 0.1354 461.5009 327.5216)" gradientUnits="userSpaceOnUse" id="SVGID_4_" x1="-335.3161" x2="-305.1231" y1="434.249" y2="434.249"><stop offset="0" style="stop-color:#FFFFFF"/><stop offset="1" style="stop-color:#000000"/></linearGradient><rect height="784.45" style="fill:url(#SVGID_4_);filter:url(#Adobe_OpacityMaskFilter);" width="576.899" x="-269.075" y="-373.37"/></mask><path d="M32.25,15.004v15.751h0.751       V15.004H32.25z" marker-end="none" marker-start="none" style="mask:url(#TranspMask_6_1_);fill:#526073;"/><path d="M30.001,15.755v4.501h0.749v-4.501       H30.001z" marker-end="none" marker-start="none" style="fill:#6F8199;fill-opacity:0.4;"/><path d="M5.999,13.505v6.751h24.003v-6.751H5.999z" marker-end="none" marker-start="none"/><linearGradient gradientTransform="matrix(6.123234e-017 -1 1 6.123234e-017 357.252 338.206)" gradientUnits="userSpaceOnUse" id="SVGID_5_" x1="318.703" x2="323.952" y1="-339.2515" y2="-339.2515"><stop offset="0" style="stop-color:#78787B"/><stop offset="1" style="stop-color:#262629"/></linearGradient><path d="M6.75,14.254v5.249h22.501v-5.249H6.75z" marker-end="none" marker-start="none" style="fill:url(#SVGID_5_);"/><defs><filter filterUnits="userSpaceOnUse" height="2.999" id="Adobe_OpacityMaskFilter_1_" width="22.501" x="6.75" y="14.254"><feColorMatrix type="matrix" values="1 0 0 0 0  0 1 0 0 0  0 0 1 0 0  0 0 0 1 0"/></filter></defs><mask height="2.999" id="TranspMask_7_1_" maskUnits="userSpaceOnUse" width="22.501" x="6.75" y="14.254"><linearGradient gradientTransform="matrix(6.123234e-017 1 -1 6.123234e-017 445.002 335.455)" gradientUnits="userSpaceOnUse" id="SVGID_6_" x1="-307" x2="-293.497" y1="425.6275" y2="425.6275"><stop offset="0" style="stop-color:#FFFFFF"/><stop offset="1" style="stop-color:#000000"/></linearGradient><rect height="784.45" style="fill:url(#SVGID_6_);filter:url(#Adobe_OpacityMaskFilter_1_);" width="576.899" x="-269.075" y="-373.37"/></mask><path d="M6.75,14.254v2.999h22.501       v-2.999H6.75z" marker-end="none" marker-start="none" style="mask:url(#TranspMask_7_1_);fill:#E6E9ED;"/><path d="M23.251,23.259v2.997H30v-2.997H23.251z" marker-end="none" marker-start="none" style="fill:#505053;"/><path d="M24,24.004v1.501h5.251v-1.501H24z" marker-end="none" marker-start="none" style="fill:#D8FFD0;"/><path d="M3.001,30.006v0.749H33v-0.749       H3.001z" marker-end="none" marker-start="none" style="fill:#6F8199;fill-opacity:0.2549;"/><path d="M8.25,28.505v5.249h19.501v-5.249H8.25z" marker-end="none" marker-start="none" style="fill:#353F4B;"/><linearGradient gradientTransform="matrix(0.0814 0.9967 -0.985 0.2241 441.4061 346.0269)" gradientUnits="userSpaceOnUse" id="SVGID_7_" x1="-410.1367" x2="-396.3347" y1="396.3556" y2="396.3556"><stop offset="0" style="stop-color:#FFFFFF"/><stop offset="1" style="stop-color:#D6E6F6"/></linearGradient><path d="M9.002,29.254v3.751h17.999v-3.751H9.002z" marker-end="none" marker-start="none" style="fill:url(#SVGID_7_);"/><path d="M9.002,28.504v0.751h17.999v-0.751H9.002z" marker-end="none" marker-start="none" style="fill:#1C2127;"/><defs><filter filterUnits="userSpaceOnUse" height="0.749" id="Adobe_OpacityMaskFilter_2_" width="19.501" x="8.25" y="27.756"><feColorMatrix type="matrix" values="1 0 0 0 0  0 1 0 0 0  0 0 1 0 0  0 0 0 1 0"/></filter></defs><mask height="0.749" id="TranspMask_8_1_" maskUnits="userSpaceOnUse" width="19.501" x="8.25" y="27.756"><linearGradient gradientTransform="matrix(6.123234e-017 -1 1 6.123234e-017 359.501 347.209)" gradientUnits="userSpaceOnUse" id="SVGID_8_" x1="-63.8708" x2="720.5789" y1="-340.1265" y2="-340.1265"><stop offset="0" style="stop-color:#FFFFFF"/><stop offset="1" style="stop-color:#000000"/></linearGradient><rect height="784.45" style="fill:url(#SVGID_8_);filter:url(#Adobe_OpacityMaskFilter_2_);" width="576.899" x="-269.075" y="-373.37"/></mask><path d="M8.25,27.756v0.749h19.501       v-0.749H8.25z" marker-end="none" marker-start="none" style="mask:url(#TranspMask_8_1_);fill:#6F8199;"/><linearGradient gradientTransform="matrix(6.123234e-017 1 -1 6.123234e-017 442.645 331.301)" gradientUnits="userSpaceOnUse" id="SVGID_9_" x1="-328.704" x2="-312.469" y1="424.6425" y2="424.6425"><stop offset="0" style="stop-color:#FFFFFF"/><stop offset="1" style="stop-color:#D6E6F6"/></linearGradient><path d="M9.756,3.755v12.749h16.493V3.755H9.756z" marker-end="none" marker-start="none" style="fill:url(#SVGID_9_);"/><path d="M9.75,15.755v0.755h16.501v-0.755H9.75z" marker-end="none" marker-start="none" style="fill:#262629;"/><path d="M9.75,15.005v0.751h16.501v-0.751       H9.75z" marker-end="none" marker-start="none" style="fill:#505053;fill-opacity:0.3373;"/><defs><filter filterUnits="userSpaceOnUse" height="5.249" id="Adobe_OpacityMaskFilter_3_" width="0.749" x="6.751" y="14.255"><feColorMatrix type="matrix" values="1 0 0 0 0  0 1 0 0 0  0 0 1 0 0  0 0 0 1 0"/></filter></defs><mask height="5.249" id="TranspMask_9_1_" maskUnits="userSpaceOnUse" width="0.749" x="6.751" y="14.255"><linearGradient gradientTransform="matrix(6.123234e-017 1 -1 6.123234e-017 434.126 329.824)" gradientUnits="userSpaceOnUse" id="SVGID_10_" x1="-307" x2="-283.361" y1="414.7515" y2="414.7515"><stop offset="0" style="stop-color:#FFFFFF"/><stop offset="1" style="stop-color:#000000"/></linearGradient><rect height="784.45" style="fill:url(#SVGID_10_);filter:url(#Adobe_OpacityMaskFilter_3_);" width="576.899" x="-269.075" y="-373.37"/></mask><path d="M6.751,14.255v5.249H7.5       v-5.249H6.751z" marker-end="none" marker-start="none" style="mask:url(#TranspMask_9_1_);fill:#E6E9ED;"/><path d="M9.001,30.755v2.249H27v-2.249       H9.001z" marker-end="none" marker-start="none" style="fill:#353F4B;fill-opacity:0.8275;"/><path d="M3.001,21.755v8.249h0.751v-8.249H3.001z" marker-end="none" marker-start="none" style="fill:#FFFFFF;"/><path d="M3.751,21.755v0.749H32.25v-0.749H3.751z" marker-end="none" marker-start="none" style="fill:#FFFFFF;"/><path d="M23.25,26.256v0.749h6.751v-0.749H23.25z" marker-end="none" marker-start="none" style="fill:#FFFFFF;"/></g></g></g></g></g><g id="Layer_1"/></svg>